<?xml version="1.0" encoding="utf-8"?>
<!-- Svg Vector Icons : http://www.onlinewebfonts.com/icon -->
<!DOCTYPE svg PUBLIC "-//W3C//DTD SVG 1.1//EN" "http://www.w3.org/Graphics/SVG/1.1/DTD/svg11.dtd">
<svg version="1.1" xmlns="http://www.w3.org/2000/svg" xmlns:xlink="http://www.w3.org/1999/xlink" x="0px" y="0px" viewBox="0 0 1000 1000" enable-background="new 0 0 1000 1000" xml:space="preserve">
<metadata> Svg Vector Icons : http://www.onlinewebfonts.com/icon </metadata>
<g><g transform="translate(0.000000,511.000000) scale(0.100000,-0.100000)"><path d="M2471,4996.9c-52.4-9.7-170.7-54.3-258.1-97c-525.8-254.2-828.5-944.9-898.4-2045c-21.3-353.1-15.5-461.8,42.7-902.2c81.5-603.4,147.5-919.7,345.4-1658.9c89.3-329.8,122.3-378.3,254.2-378.3c85.4,0,1668.6,318.2,1752.1,353.1c93.1,36.9,106.7,79.5,116.4,393.9c11.6,351.2,50.4,498.7,228.9,886.7c236.7,508.3,267.8,665.5,232.8,1168c-46.6,669.4-143.6,1144.8-304.6,1484.3c-258.1,547.2-613.1,789.7-1181.6,807.2C2672.8,5012.4,2525.3,5008.5,2471,4996.9z M2959.9,4581.7c190.1-44.6,296.9-104.8,432.7-240.6c145.5-145.5,240.6-316.3,318.2-560.7c93.1-296.9,166.9-863.4,172.7-1313.6c3.9-260-17.5-339.5-199.8-737.3c-188.2-417.1-271.6-719.8-271.6-999.2V617.7l-91.2-19.4c-750.9-155.2-1191.3-240.6-1201-232.8c-23.3,23.3-164.9,578.2-230.9,898.3c-36.9,182.4-89.3,496.7-118.4,698.5c-46.6,335.7-50.4,407.5-40.7,795.5c5.8,312.4,19.4,489,50.4,657.8c48.5,269.7,147.5,582.1,238.7,743.1c69.8,126.1,246.4,314.3,341.5,362.8C2527.2,4606.9,2754.3,4630.2,2959.9,4581.7z"/><path d="M7019,2765.6c-324-46.6-613.1-215.4-807.2-471.5c-281.3-370.6-436.6-946.8-492.8-1833.6c-34.9-514.1-11.7-626.7,254.2-1201c161-351.2,196-490.9,205.7-838.2c9.7-291,23.3-345.4,102.9-386.1c21.3-11.7,428.8-99,906.1-196c925.5-186.3,925.5-186.3,1007-97c36.9,40.8,236.7,774.2,320.1,1177.7c69.8,337.6,153.3,896.4,172.7,1170c40.7,533.6-58.2,1303.9-217.3,1728.8c-151.3,403.6-399.7,714-679.1,851.8C7589.4,2769.5,7292.5,2806.3,7019,2765.6z M7407,2360.1c543.3-89.3,844-723.7,869.2-1843.3c9.7-378.3,5.8-452.1-40.8-785.8c-29.1-201.8-81.5-516.1-118.3-698.5c-67.9-327.9-209.6-875.1-232.8-898.3c-9.7-11.6-1199.1,217.3-1265.1,242.5c-15.5,5.8-25.2,46.6-25.2,110.6c0,147.5-50.4,428.8-106.7,601.5c-27.2,85.4-106.7,275.5-174.6,423c-176.6,380.3-194,446.3-192.1,714c5.8,452.1,79.6,1020.6,172.7,1319.4c170.7,543.3,457.9,791.6,960.4,832.4C7269.2,2377.5,7339.1,2369.8,7407,2360.1z"/><path d="M2897.8-397.1c-814.9-166.9-836.3-170.7-886.7-230.9c-66-71.8-67.9-116.4-15.5-343.4c217.3-931.3,506.4-1402.8,952.7-1540.6c145.5-46.6,405.5-48.5,603.4-7.8c518,110.6,719.8,423,657.7,1022.5c-25.2,238.7-106.7,665.5-192.1,985.7c-46.6,182.4-58.2,207.6-118.4,246.4c-36.9,25.2-89.2,42.7-116.4,42.7C3755.4-224.4,3357.7-302,2897.8-397.1z M3701.1-948.1c132-568.5,149.4-811,75.7-960.4c-75.7-149.4-201.8-207.6-483.1-227c-436.6-29.1-624.8,196-834.3,991.5c-31,118.4-50.4,217.3-46.6,221.2c17.4,17.5,1203,250.3,1216.6,238.7C3637.1-690,3670.1-810.3,3701.1-948.1z"/><path d="M6134.2-2478.9c-33-15.5-73.7-52.4-89.2-83.4c-38.8-73.7-178.5-665.5-229-960.4c-52.4-304.6-44.6-609.2,19.4-774.2c104.8-271.6,358.9-432.7,762.5-483.1c430.7-52.4,758.6,102.8,1005,479.2c122.2,184.3,217.3,417.2,320.2,772.2c147.4,514.2,153.3,613.1,46.6,692.7c-31.1,23.3-320.1,91.2-861.5,201.8C6130.3-2432.4,6209.9-2446,6134.2-2478.9z M7001.5-3033.9c310.4-64,570.4-116.4,576.3-116.4c44.6,0-122.2-589.9-227-805.2c-95.1-197.9-188.2-304.6-320.1-370.6c-98.9-46.6-120.3-50.5-304.6-42.7c-312.4,13.6-469.6,100.9-521.9,293c-27.2,99-11.7,393.9,31,586c106.7,496.7,130,572.4,164.9,572.4C6419.4-2917.4,6691.1-2969.8,7001.5-3033.9z"/></g></g>
</svg>