G04 #@! TF.GenerationSoftware,KiCad,Pcbnew,(5.0.0)*
G04 #@! TF.CreationDate,2019-11-03T00:35:12+02:00*
G04 #@! TF.ProjectId,WatchBorad,5761746368426F7261642E6B69636164,rev?*
G04 #@! TF.SameCoordinates,Original*
G04 #@! TF.FileFunction,Paste,Bot*
G04 #@! TF.FilePolarity,Positive*
%FSLAX46Y46*%
G04 Gerber Fmt 4.6, Leading zero omitted, Abs format (unit mm)*
G04 Created by KiCad (PCBNEW (5.0.0)) date 11/03/19 00:35:12*
%MOMM*%
%LPD*%
G01*
G04 APERTURE LIST*
%ADD10C,0.100000*%
%ADD11C,1.150000*%
G04 APERTURE END LIST*
D10*
G04 #@! TO.C,L2*
G36*
X86836505Y-108363204D02*
X86860773Y-108366804D01*
X86884572Y-108372765D01*
X86907671Y-108381030D01*
X86929850Y-108391520D01*
X86950893Y-108404132D01*
X86970599Y-108418747D01*
X86988777Y-108435223D01*
X87005253Y-108453401D01*
X87019868Y-108473107D01*
X87032480Y-108494150D01*
X87042970Y-108516329D01*
X87051235Y-108539428D01*
X87057196Y-108563227D01*
X87060796Y-108587495D01*
X87062000Y-108611999D01*
X87062000Y-109512001D01*
X87060796Y-109536505D01*
X87057196Y-109560773D01*
X87051235Y-109584572D01*
X87042970Y-109607671D01*
X87032480Y-109629850D01*
X87019868Y-109650893D01*
X87005253Y-109670599D01*
X86988777Y-109688777D01*
X86970599Y-109705253D01*
X86950893Y-109719868D01*
X86929850Y-109732480D01*
X86907671Y-109742970D01*
X86884572Y-109751235D01*
X86860773Y-109757196D01*
X86836505Y-109760796D01*
X86812001Y-109762000D01*
X86161999Y-109762000D01*
X86137495Y-109760796D01*
X86113227Y-109757196D01*
X86089428Y-109751235D01*
X86066329Y-109742970D01*
X86044150Y-109732480D01*
X86023107Y-109719868D01*
X86003401Y-109705253D01*
X85985223Y-109688777D01*
X85968747Y-109670599D01*
X85954132Y-109650893D01*
X85941520Y-109629850D01*
X85931030Y-109607671D01*
X85922765Y-109584572D01*
X85916804Y-109560773D01*
X85913204Y-109536505D01*
X85912000Y-109512001D01*
X85912000Y-108611999D01*
X85913204Y-108587495D01*
X85916804Y-108563227D01*
X85922765Y-108539428D01*
X85931030Y-108516329D01*
X85941520Y-108494150D01*
X85954132Y-108473107D01*
X85968747Y-108453401D01*
X85985223Y-108435223D01*
X86003401Y-108418747D01*
X86023107Y-108404132D01*
X86044150Y-108391520D01*
X86066329Y-108381030D01*
X86089428Y-108372765D01*
X86113227Y-108366804D01*
X86137495Y-108363204D01*
X86161999Y-108362000D01*
X86812001Y-108362000D01*
X86836505Y-108363204D01*
X86836505Y-108363204D01*
G37*
D11*
X86487000Y-109062000D03*
D10*
G36*
X84786505Y-108363204D02*
X84810773Y-108366804D01*
X84834572Y-108372765D01*
X84857671Y-108381030D01*
X84879850Y-108391520D01*
X84900893Y-108404132D01*
X84920599Y-108418747D01*
X84938777Y-108435223D01*
X84955253Y-108453401D01*
X84969868Y-108473107D01*
X84982480Y-108494150D01*
X84992970Y-108516329D01*
X85001235Y-108539428D01*
X85007196Y-108563227D01*
X85010796Y-108587495D01*
X85012000Y-108611999D01*
X85012000Y-109512001D01*
X85010796Y-109536505D01*
X85007196Y-109560773D01*
X85001235Y-109584572D01*
X84992970Y-109607671D01*
X84982480Y-109629850D01*
X84969868Y-109650893D01*
X84955253Y-109670599D01*
X84938777Y-109688777D01*
X84920599Y-109705253D01*
X84900893Y-109719868D01*
X84879850Y-109732480D01*
X84857671Y-109742970D01*
X84834572Y-109751235D01*
X84810773Y-109757196D01*
X84786505Y-109760796D01*
X84762001Y-109762000D01*
X84111999Y-109762000D01*
X84087495Y-109760796D01*
X84063227Y-109757196D01*
X84039428Y-109751235D01*
X84016329Y-109742970D01*
X83994150Y-109732480D01*
X83973107Y-109719868D01*
X83953401Y-109705253D01*
X83935223Y-109688777D01*
X83918747Y-109670599D01*
X83904132Y-109650893D01*
X83891520Y-109629850D01*
X83881030Y-109607671D01*
X83872765Y-109584572D01*
X83866804Y-109560773D01*
X83863204Y-109536505D01*
X83862000Y-109512001D01*
X83862000Y-108611999D01*
X83863204Y-108587495D01*
X83866804Y-108563227D01*
X83872765Y-108539428D01*
X83881030Y-108516329D01*
X83891520Y-108494150D01*
X83904132Y-108473107D01*
X83918747Y-108453401D01*
X83935223Y-108435223D01*
X83953401Y-108418747D01*
X83973107Y-108404132D01*
X83994150Y-108391520D01*
X84016329Y-108381030D01*
X84039428Y-108372765D01*
X84063227Y-108366804D01*
X84087495Y-108363204D01*
X84111999Y-108362000D01*
X84762001Y-108362000D01*
X84786505Y-108363204D01*
X84786505Y-108363204D01*
G37*
D11*
X84437000Y-109062000D03*
G04 #@! TD*
D10*
G04 #@! TO.C,L1*
G36*
X86836505Y-110395204D02*
X86860773Y-110398804D01*
X86884572Y-110404765D01*
X86907671Y-110413030D01*
X86929850Y-110423520D01*
X86950893Y-110436132D01*
X86970599Y-110450747D01*
X86988777Y-110467223D01*
X87005253Y-110485401D01*
X87019868Y-110505107D01*
X87032480Y-110526150D01*
X87042970Y-110548329D01*
X87051235Y-110571428D01*
X87057196Y-110595227D01*
X87060796Y-110619495D01*
X87062000Y-110643999D01*
X87062000Y-111544001D01*
X87060796Y-111568505D01*
X87057196Y-111592773D01*
X87051235Y-111616572D01*
X87042970Y-111639671D01*
X87032480Y-111661850D01*
X87019868Y-111682893D01*
X87005253Y-111702599D01*
X86988777Y-111720777D01*
X86970599Y-111737253D01*
X86950893Y-111751868D01*
X86929850Y-111764480D01*
X86907671Y-111774970D01*
X86884572Y-111783235D01*
X86860773Y-111789196D01*
X86836505Y-111792796D01*
X86812001Y-111794000D01*
X86161999Y-111794000D01*
X86137495Y-111792796D01*
X86113227Y-111789196D01*
X86089428Y-111783235D01*
X86066329Y-111774970D01*
X86044150Y-111764480D01*
X86023107Y-111751868D01*
X86003401Y-111737253D01*
X85985223Y-111720777D01*
X85968747Y-111702599D01*
X85954132Y-111682893D01*
X85941520Y-111661850D01*
X85931030Y-111639671D01*
X85922765Y-111616572D01*
X85916804Y-111592773D01*
X85913204Y-111568505D01*
X85912000Y-111544001D01*
X85912000Y-110643999D01*
X85913204Y-110619495D01*
X85916804Y-110595227D01*
X85922765Y-110571428D01*
X85931030Y-110548329D01*
X85941520Y-110526150D01*
X85954132Y-110505107D01*
X85968747Y-110485401D01*
X85985223Y-110467223D01*
X86003401Y-110450747D01*
X86023107Y-110436132D01*
X86044150Y-110423520D01*
X86066329Y-110413030D01*
X86089428Y-110404765D01*
X86113227Y-110398804D01*
X86137495Y-110395204D01*
X86161999Y-110394000D01*
X86812001Y-110394000D01*
X86836505Y-110395204D01*
X86836505Y-110395204D01*
G37*
D11*
X86487000Y-111094000D03*
D10*
G36*
X84786505Y-110395204D02*
X84810773Y-110398804D01*
X84834572Y-110404765D01*
X84857671Y-110413030D01*
X84879850Y-110423520D01*
X84900893Y-110436132D01*
X84920599Y-110450747D01*
X84938777Y-110467223D01*
X84955253Y-110485401D01*
X84969868Y-110505107D01*
X84982480Y-110526150D01*
X84992970Y-110548329D01*
X85001235Y-110571428D01*
X85007196Y-110595227D01*
X85010796Y-110619495D01*
X85012000Y-110643999D01*
X85012000Y-111544001D01*
X85010796Y-111568505D01*
X85007196Y-111592773D01*
X85001235Y-111616572D01*
X84992970Y-111639671D01*
X84982480Y-111661850D01*
X84969868Y-111682893D01*
X84955253Y-111702599D01*
X84938777Y-111720777D01*
X84920599Y-111737253D01*
X84900893Y-111751868D01*
X84879850Y-111764480D01*
X84857671Y-111774970D01*
X84834572Y-111783235D01*
X84810773Y-111789196D01*
X84786505Y-111792796D01*
X84762001Y-111794000D01*
X84111999Y-111794000D01*
X84087495Y-111792796D01*
X84063227Y-111789196D01*
X84039428Y-111783235D01*
X84016329Y-111774970D01*
X83994150Y-111764480D01*
X83973107Y-111751868D01*
X83953401Y-111737253D01*
X83935223Y-111720777D01*
X83918747Y-111702599D01*
X83904132Y-111682893D01*
X83891520Y-111661850D01*
X83881030Y-111639671D01*
X83872765Y-111616572D01*
X83866804Y-111592773D01*
X83863204Y-111568505D01*
X83862000Y-111544001D01*
X83862000Y-110643999D01*
X83863204Y-110619495D01*
X83866804Y-110595227D01*
X83872765Y-110571428D01*
X83881030Y-110548329D01*
X83891520Y-110526150D01*
X83904132Y-110505107D01*
X83918747Y-110485401D01*
X83935223Y-110467223D01*
X83953401Y-110450747D01*
X83973107Y-110436132D01*
X83994150Y-110423520D01*
X84016329Y-110413030D01*
X84039428Y-110404765D01*
X84063227Y-110398804D01*
X84087495Y-110395204D01*
X84111999Y-110394000D01*
X84762001Y-110394000D01*
X84786505Y-110395204D01*
X84786505Y-110395204D01*
G37*
D11*
X84437000Y-111094000D03*
G04 #@! TD*
M02*
