M48
;DRILL file {KiCad (5.0.0)} date 11/03/19 00:35:25
;FORMAT={-:-/ absolute / inch / decimal}
FMAT,2
INCH,TZ
T1C0.0157
T2C0.0394
T3C0.0394
%
G90
G05
M72
T1
X1.872Y-3.0806
X1.892Y-3.0106
X1.892Y-3.3056
X1.987Y-3.0706
X2.05Y-3.56
X2.06Y-3.725
X2.105Y-3.7
X2.116Y-3.405
X2.145Y-3.725
X2.16Y-3.405
X2.199Y-3.4052
X2.2246Y-3.7202
X2.235Y-3.675
X2.294Y-3.559
X2.295Y-3.52
X2.315Y-3.3
X2.38Y-3.72
X2.45Y-3.285
X2.475Y-3.555
X2.475Y-3.595
X2.535Y-3.61
X2.655Y-3.23
X2.655Y-3.275
X2.655Y-3.345
X2.9134Y-5.6299
X2.96Y-5.4
X2.965Y-3.09
X3.085Y-5.45
X3.1507Y-5.47
X3.51Y-5.505
X3.59Y-4.295
X3.59Y-4.3738
X3.65Y-5.36
X3.76Y-5.02
X3.76Y-5.25
X3.8766Y-5.3232
X3.895Y-5.6
X3.96Y-5.595
X4.058Y-5.704
X4.174Y-5.324
X4.242Y-5.492
X4.5Y-5.355
X4.875Y-4.82
X4.91Y-3.485
X4.91Y-4.605
X4.92Y-5.53
X4.9269Y-3.91
X4.97Y-4.515
X5.01Y-5.145
X5.035Y-5.26
X5.19Y-5.36
T2
X3.622Y-2.7165
X3.722Y-2.7165
X3.822Y-2.7165
X3.922Y-2.7165
X4.022Y-2.7165
X4.122Y-2.7165
X4.5Y-3.7441
X4.5Y-3.8441
X4.5Y-3.9441
X4.5Y-4.0441
X4.5Y-4.1441
X4.5Y-4.2441
X4.5Y-4.3441
X4.5Y-4.4441
X4.5Y-4.5441
X4.5Y-4.6441
X4.5Y-4.7441
X5.1969Y-3.6619
X5.1969Y-3.7619
X5.1969Y-3.8619
X5.1969Y-3.9619
X5.1969Y-4.0619
X5.1969Y-4.1619
X5.1969Y-4.2619
X2.1528Y-2.7165
X2.2528Y-2.7165
X2.3528Y-2.7165
X2.4528Y-2.7165
X2.5528Y-2.7165
X2.6528Y-2.7165
X2.7528Y-2.7165
X2.8528Y-2.7165
X2.9528Y-2.7165
X2.8346Y-5.7874
X2.9346Y-5.7874
X3.0346Y-5.7874
X3.1346Y-5.7874
X3.2346Y-5.7874
X3.3346Y-5.7874
X3.6157Y-5.7874
X3.7157Y-5.7874
X3.8157Y-5.7874
X3.9157Y-5.7874
X4.0157Y-5.7874
X4.1157Y-5.7874
X4.2157Y-5.7874
X4.3157Y-5.7874
X4.4157Y-5.7874
X4.5157Y-5.7874
X3.189Y-3.7441
X3.189Y-3.8441
X3.189Y-3.9441
X3.189Y-4.0441
X3.189Y-4.1441
X3.189Y-4.2441
X3.189Y-4.3441
X3.189Y-4.4441
X3.189Y-4.5441
X3.189Y-4.6441
X3.189Y-4.7441
X4.3307Y-2.7165
X4.4307Y-2.7165
X4.5307Y-2.7165
X4.6307Y-2.7165
X3.295Y-4.85
X3.395Y-4.85
X3.495Y-4.85
X3.595Y-4.85
X3.695Y-4.85
X3.795Y-4.85
X3.895Y-4.85
X3.995Y-4.85
X4.095Y-4.85
X4.195Y-4.85
X4.295Y-4.85
X4.395Y-4.85
T3
X4.9429Y-2.8504
X5.1161Y-2.8504
T0
M30
