<svg xmlns="http://www.w3.org/2000/svg" viewBox="0 0 118.5 388.3">
  <g xmlns:cc="http://creativecommons.org/ns#" xmlns:dc="http://purl.org/dc/elements/1.1/" xmlns:rdf="http://www.w3.org/1999/02/22-rdf-syntax-ns#" xmlns:svg="http://www.w3.org/2000/svg" id="svg2">
    <path d="M70 334.6L0 388.3V0c17.8 54.2 43.7 259.6 70 334.6z" class="st0"/>
    <path d="M70 334.6L0 388.3V0c17.8 54.2 43.7 259.6 70 334.6z" class="st0"/>
    <path d="M70 334.6L0 388.3V0c17.8 54.2 43.7 259.6 70 334.6z"/>
    <path d="M0 0c37.8 30.9 80.7 62.3 118.5 93.2-2.7 27.3-3.8 49.4-4.3 64.6-.5 14.1-1.3 28.1-1.8 42.2 0 .9-.1 3.5-.4 6.9-.6 7.2-1.6 12.6-2.5 16.9-1.7 8.7-4 20.3-6 27.9-8.9 33.9-32.5 80.5-33.6 82.8-44-186.3-47.7-219.2-45.1-220.7 2.8-1.6 5.3-1.4 5.3-1.4 3.7.3 5.4 3.1 6 2.8 2.1-.9-11.9-44-33.3-106.4"/>
    <path d="M22.4 78.3H39v40.4H22.4zM35 258.3h34.7v62.2H35zM12.6 30.5h5.2v23.1h-5.2z"/>
  </g>
  <g id="Слой_3">
    <path d="M68.2 328.1h.9v4h-.9z"/>
    <path d="M68.8 331.8h.9v2.2h-.9z"/>
    <path d="M69.3 333.2h.9v.9h-.9zM69.4 334.1h.5v.2h-.5z"/>
    <path d="M69.9 334h.1v.4h-.1z" class="st3"/>
    <path d="M69.9 334.3h.2v.1h-.2z" class="st3"/>
    <path d="M69.9 334.3h.2v.1h-.2z" class="st3"/>
  </g>
  <g id="Слой_5">
    <path fill="#050505" d="M12.6 43.6H2.9V9.9l9.4.3z"/>
    <path fill="#020202" d="M7.8 40.5h20.1v75.6H7.8z"/>
    <path d="M38.9 196.5h13v78.1h-13z"/>
    <path d="M48.4 263.7h7.9v52.1h-7.9z"/>
    <path d="M51.9 282.7h12.2v41.6H51.9z"/>
    <path d="M61.9 312.5h6.5V334h-6.5z"/>
    <path d="M67.9 326.1H70v2.1h-2.1zM2.5 6.3h1v3.6h-1zM.6 1.6h.9V4H.6z"/>
    <path d="M2 4.1h.8v5.2H2z"/>
    <path d="M1.5 4.5h1.3v2H1.5z"/>
    <path d="M.3 3.7h2v1.4h-2zM10.7 36.2h3.4v4h-3.4zM46.7 252.8H58V263H46.7zM34 189.5h11.4v13.9H34zM67.4 330.1h2.3v1.7h-2.3z"/>
  </g>
</svg>
