<?xml version="1.0" encoding="utf-8"?>
<!-- Generator: Adobe Illustrator 23.0.5, SVG Export Plug-In . SVG Version: 6.00 Build 0)  -->
<svg version="1.1" xmlns="http://www.w3.org/2000/svg" xmlns:xlink="http://www.w3.org/1999/xlink" x="0px" y="0px"
	 viewBox="0 0 169.6 241.5" style="enable-background:new 0 0 169.6 241.5;" xml:space="preserve">
<style type="text/css">
	.st0{display:none;}
	.st1{display:inline;}
	.st2{fill:#93AEDB;}
	.st3{fill:#151F33;}
	.st4{display:inline;fill:#93AEDB;}
	.st5{display:inline;fill:#151F33;}
	.st6{display:none;fill:#151F33;}
</style>
<g id="svg2" xmlns:cc="http://creativecommons.org/ns#" xmlns:dc="http://purl.org/dc/elements/1.1/" xmlns:rdf="http://www.w3.org/1999/02/22-rdf-syntax-ns#" xmlns:svg="http://www.w3.org/2000/svg" class="st0">
	<g class="st1">
		<path class="st2" d="M0,241.5l-70,53.7V-93.1C-52.3-38.9-26.4,166.5,0,241.5z"/>
		<path class="st2" d="M0,241.5l-70,53.7V-93.1C-52.3-38.9-26.4,166.5,0,241.5z"/>
		<path class="st3" d="M0,241.5l-70,53.7V-93.1C-52.3-38.9-26.4,166.5,0,241.5z"/>
	</g>
	<path class="st4" d="M-8.2,236.5"/>
	<path class="st5" d="M-70-93.1C-32.2-62.2,10.6-30.8,48.5,0.1c-2.7,27.3-3.8,49.4-4.3,64.6c-0.5,14.1-1.3,28.1-1.8,42.2
		c0,0.9-0.1,3.5-0.4,6.9c-0.6,7.2-1.6,12.6-2.5,16.9c-1.7,8.7-4,20.3-6,27.9C24.7,192.6,1.1,239.3,0,241.5
		C-44.1,55.1-47.8,22.2-45.2,20.7c2.8-1.6,5.3-1.4,5.3-1.4c3.7,0.3,5.4,3.1,6,2.8c2.1-0.9-11.9-44-33.3-106.4"/>
	<rect x="-47.7" y="-14.8" class="st5" width="16.6" height="40.4"/>
	<rect x="-35" y="165.2" class="st5" width="34.7" height="62.2"/>
	<rect x="-57.4" y="-62.6" class="st5" width="5.2" height="23.1"/>
</g>
<g id="Слой_3">
	<g>
		<path d="M169.6,101.2L0,241.5c7.4-15.6,21-42.4,30.3-72.3c4.2-13.6,6.5-25.5,7.2-29.3c2.5-12.7,4.5-22.7,4.7-35.4
			c0-2.8,0-6.2,0.2-13.5c0.1-5,0.3-11.1,0.6-18.1c0.3-7.4,0.8-14,1.4-22.6c0.6-8.2,1-10.1,1.5-17.4c0.2-3.5,0.5-6.9,0.7-10.4
			c0.3-4,0.4-5.6,0.6-7.9c0.1-1.2,0.3-2.1,0.4-3.7c0.2-2.2,0.2-3.2,0.3-5.2c0.1-1.3,0.2-3.2,0.5-5.6
			C87.7,33.1,130.2,68.1,169.6,101.2z"/>
	</g>
	<rect x="-1.8" y="235" class="st6" width="0.9" height="4"/>
	<rect x="-1.2" y="238.7" class="st6" width="0.9" height="2.2"/>
	<rect x="-0.8" y="240.2" class="st6" width="0.9" height="0.9"/>
	<rect x="-0.6" y="241" class="st6" width="0.5" height="0.2"/>
	<rect x="-0.2" y="241" class="st6" width="0.1" height="0.4"/>
	<rect x="-0.2" y="241.3" class="st6" width="0.2" height="0.1"/>
	<rect x="-0.2" y="241.2" class="st6" width="0.2" height="0.1"/>
	<rect x="-0.1" y="241.3" class="st6" width="0" height="0.1"/>
	<rect x="-0.2" y="241.2" class="st6" width="0.1" height="0"/>
</g>
<g id="Слой_5" class="st0">
	<polygon class="st5" points="-57.4,-49.5 -67.1,-49.5 -67.1,-83.2 -57.7,-82.9 	"/>
	<rect x="-62.3" y="-52.6" class="st5" width="20.1" height="75.6"/>
	<rect x="-31.1" y="103.4" class="st5" width="13" height="78.1"/>
	<rect x="-21.6" y="170.6" class="st5" width="7.9" height="52.1"/>
	<rect x="-18.1" y="189.6" class="st5" width="12.2" height="41.6"/>
	<rect x="-8.2" y="219.4" class="st5" width="6.5" height="21.5"/>
	<rect x="-2.1" y="233" class="st5" width="2.1" height="2.1"/>
	<rect x="-67.5" y="-86.7" class="st5" width="1" height="3.6"/>
	<rect x="-69.5" y="-91.5" class="st5" width="0.9" height="2.4"/>
	<rect x="-68.1" y="-89" class="st5" width="0.8" height="5.2"/>
	<rect x="-68.5" y="-88.6" class="st5" width="1.3" height="2"/>
	<rect x="-69.7" y="-89.4" class="st5" width="2" height="1.4"/>
	<rect x="-59.3" y="-56.9" class="st5" width="3.4" height="4"/>
	<rect x="-23.3" y="159.7" class="st5" width="11.3" height="10.2"/>
	<rect x="-36" y="96.4" class="st5" width="11.4" height="13.9"/>
	<rect x="-2.6" y="237" class="st5" width="2.3" height="1.7"/>
</g>
</svg>
