<?xml version="1.0" encoding="UTF-8" standalone="no"?>
<!-- Created with Inkscape (http://www.inkscape.org/) -->

<svg
   xmlns:dc="http://purl.org/dc/elements/1.1/"
   xmlns:cc="http://creativecommons.org/ns#"
   xmlns:rdf="http://www.w3.org/1999/02/22-rdf-syntax-ns#"
   xmlns:svg="http://www.w3.org/2000/svg"
   xmlns="http://www.w3.org/2000/svg"
   xmlns:sodipodi="http://sodipodi.sourceforge.net/DTD/sodipodi-0.dtd"
   xmlns:inkscape="http://www.inkscape.org/namespaces/inkscape"
   width="100mm"
   height="100mm"
   viewBox="0 0 100 100"
   version="1.1"
   id="svg8"
   inkscape:version="0.92.4 (5da689c313, 2019-01-14)"
   sodipodi:docname="player_next.svg">
  <defs
     id="defs2" />
  <sodipodi:namedview
     id="base"
     pagecolor="#ffffff"
     bordercolor="#666666"
     borderopacity="1.0"
     inkscape:pageopacity="0.0"
     inkscape:pageshadow="2"
     inkscape:zoom="1.979899"
     inkscape:cx="256.04547"
     inkscape:cy="184.26905"
     inkscape:document-units="mm"
     inkscape:current-layer="layer1"
     showgrid="false"
     inkscape:window-width="1920"
     inkscape:window-height="1017"
     inkscape:window-x="-8"
     inkscape:window-y="-8"
     inkscape:window-maximized="1" />
  <metadata
     id="metadata5">
    <rdf:RDF>
      <cc:Work
         rdf:about="">
        <dc:format>image/svg+xml</dc:format>
        <dc:type
           rdf:resource="http://purl.org/dc/dcmitype/StillImage" />
        <dc:title></dc:title>
      </cc:Work>
    </rdf:RDF>
  </metadata>
  <g
     inkscape:label="Layer 1"
     inkscape:groupmode="layer"
     id="layer1"
     transform="translate(0,-197)">
    <path
       style="fill:#000000;stroke-width:0.18115208"
       d="M 35.742205,266.97817 C 25.366795,255.4951 16.87861,246.02819 16.879583,245.94057 c 7.16e-4,-0.0874 8.489946,-9.72105 18.864388,-21.40768 l 18.862623,-21.24839 0.04596,21.1122 c 0.02515,11.6117 0.02515,30.6404 0,42.28599 l -0.04596,21.17379 z"
       id="path39"
       inkscape:connector-curvature="0"
       inkscape:transform-center-x="21.458629"
       inkscape:transform-center-y="-258.86823" />
    <path
       style="fill:#000000;stroke-width:0.12809388"
       d="m 65.429421,276.4442 c -0.292828,-0.1975 -0.761496,-0.6657 -1.041487,-1.04015 l -0.509076,-0.68083 v -30.1428 -30.14283 l 0.488511,-0.75825 c 0.974445,-1.51252 1.838396,-1.9278 2.793289,-1.34271 0.42869,0.26281 1.328328,1.33138 1.654794,1.96575 0.171747,0.33377 0.182929,3.70166 0.100259,30.16532 l -0.09307,29.78958 -0.484041,0.72739 c -0.662756,0.99595 -0.751267,1.09551 -1.317066,1.48134 -0.628733,0.42875 -0.930635,0.42463 -1.592116,-0.0226 z"
       id="path43"
       inkscape:connector-curvature="0"
       inkscape:transform-center-x="-9.188093"
       inkscape:transform-center-y="-260.0059" />
  </g>
</svg>
