<?xml version="1.0" encoding="UTF-8" standalone="no"?>
<!-- Created with Inkscape (http://www.inkscape.org/) -->

<svg
   xmlns:dc="http://purl.org/dc/elements/1.1/"
   xmlns:cc="http://creativecommons.org/ns#"
   xmlns:rdf="http://www.w3.org/1999/02/22-rdf-syntax-ns#"
   xmlns:svg="http://www.w3.org/2000/svg"
   xmlns="http://www.w3.org/2000/svg"
   xmlns:sodipodi="http://sodipodi.sourceforge.net/DTD/sodipodi-0.dtd"
   xmlns:inkscape="http://www.inkscape.org/namespaces/inkscape"
   width="210mm"
   height="297mm"
   viewBox="0 0 210 297"
   version="1.1"
   id="svg8"
   inkscape:version="0.92.4 (5da689c313, 2019-01-14)"
   sodipodi:docname="Player_redraw.svg">
  <defs
     id="defs2" />
  <sodipodi:namedview
     id="base"
     pagecolor="#ffffff"
     bordercolor="#666666"
     borderopacity="1.0"
     inkscape:pageopacity="0.0"
     inkscape:pageshadow="2"
     inkscape:zoom="0.98994949"
     inkscape:cx="325.07476"
     inkscape:cy="683.85785"
     inkscape:document-units="mm"
     inkscape:current-layer="Слой_1"
     showgrid="false"
     inkscape:window-width="1920"
     inkscape:window-height="1017"
     inkscape:window-x="-8"
     inkscape:window-y="-8"
     inkscape:window-maximized="1" />
  <metadata
     id="metadata5">
    <rdf:RDF>
      <cc:Work
         rdf:about="">
        <dc:format>image/svg+xml</dc:format>
        <dc:type
           rdf:resource="http://purl.org/dc/dcmitype/StillImage" />
        <dc:title></dc:title>
      </cc:Work>
    </rdf:RDF>
  </metadata>
  <g
     inkscape:label="Layer 1"
     inkscape:groupmode="layer"
     id="layer1">
    <g
       id="g3799"
       transform="matrix(0.26458333,0,0,0.26458333,68.062168,60.449271)">
      <g
         id="Слой_1"
         transform="translate(-147.85714,6.4285715)">
	
		
	<g
   id="g3736"
   transform="matrix(1.3367001,0,0,1.3367001,134.23491,-130.24338)">
		<path
   id="path3734"
   d="M 239.7,194.2 70.1,334.5 c 7.4,-15.6 21,-42.4 30.3,-72.3 4.2,-13.6 6.5,-25.5 7.2,-29.3 2.5,-12.7 4.5,-22.7 4.7,-35.4 0,-2.8 0,-6.2 0.2,-13.5 0.1,-5 0.3,-11.1 0.6,-18.1 0.3,-7.4 0.8,-14 1.4,-22.6 0.6,-8.2 1,-10.1 1.5,-17.4 0.2,-3.5 0.5,-6.9 0.7,-10.4 0.3,-4 0.4,-5.6 0.6,-7.9 0.1,-1.2 0.3,-2.1 0.4,-3.7 0.2,-2.2 0.2,-3.2 0.3,-5.2 0.1,-1.3 0.2,-3.2 0.5,-5.6 39.3,33 81.8,68 121.2,101.1 z"
   inkscape:connector-curvature="0" />

	</g>

<path
   style="fill:#000000;stroke:#000000;stroke-width:1.33670008px;stroke-linecap:butt;stroke-linejoin:miter;stroke-opacity:1"
   d="m -11.978159,-134.49471 v 519.04065 l 93.569025,-71.7808 24.022464,-51.72039 16.184,-44.42433 7.38732,-25.43139 7.86227,-37.77398 0.99687,-15.37301 0.54453,-13.62809 0.34312,-7.95158 7.48938,-126.3766236 z"
   id="path3801"
   inkscape:connector-curvature="0"
   sodipodi:nodetypes="cccccccccccc" />
</g>
    </g>
  </g>
  <style
     id="style3713"
     type="text/css">
	.st0{fill:#93AEDB;}
</style>
</svg>
