<?xml version="1.0" encoding="UTF-8" standalone="no"?>
<!-- Created with Inkscape (http://www.inkscape.org/) -->

<svg
   xmlns:dc="http://purl.org/dc/elements/1.1/"
   xmlns:cc="http://creativecommons.org/ns#"
   xmlns:rdf="http://www.w3.org/1999/02/22-rdf-syntax-ns#"
   xmlns:svg="http://www.w3.org/2000/svg"
   xmlns="http://www.w3.org/2000/svg"
   xmlns:sodipodi="http://sodipodi.sourceforge.net/DTD/sodipodi-0.dtd"
   xmlns:inkscape="http://www.inkscape.org/namespaces/inkscape"
   width="105mm"
   height="148mm"
   viewBox="0 0 105 148"
   version="1.1"
   id="svg8"
   inkscape:version="0.92.4 (5da689c313, 2019-01-14)"
   sodipodi:docname="Player_2.svg">
  <defs
     id="defs2" />
  <sodipodi:namedview
     id="base"
     pagecolor="#ffffff"
     bordercolor="#666666"
     borderopacity="1.0"
     inkscape:pageopacity="0.0"
     inkscape:pageshadow="2"
     inkscape:zoom="0.7"
     inkscape:cx="-78.448241"
     inkscape:cy="490.49844"
     inkscape:document-units="mm"
     inkscape:current-layer="Слой_1"
     showgrid="false"
     inkscape:window-width="1920"
     inkscape:window-height="1017"
     inkscape:window-x="-8"
     inkscape:window-y="-8"
     inkscape:window-maximized="1" />
  <metadata
     id="metadata5">
    <rdf:RDF>
      <cc:Work
         rdf:about="">
        <dc:format>image/svg+xml</dc:format>
        <dc:type
           rdf:resource="http://purl.org/dc/dcmitype/StillImage" />
        <dc:title></dc:title>
      </cc:Work>
    </rdf:RDF>
  </metadata>
  <g
     inkscape:label="Layer 1"
     inkscape:groupmode="layer"
     id="layer1"
     transform="translate(0,-149)">
    <g
       id="g3799"
       transform="matrix(0.26458333,0,0,0.26458333,58.234787,186.31535)">
      <g
         id="Слой_1"
         transform="translate(-192.14285,9.2857143)">
	
		
	<g
   id="g3736"
   transform="matrix(1.3367001,0,0,1.3367001,65.663481,-134.52909)">
		<path
   id="path3734"
   d="m 171.30128,193.13127 -169.5999977,140.3 c 7.4,-15.6 20.9999997,-42.4 30.2999997,-72.3 4.2,-13.6 6.5,-25.5 7.2,-29.3 2.5,-12.7 4.5,-22.7 4.7,-35.4 0,-2.8 0,-6.2 0.2,-13.5 0.1,-5 0.3,-11.1 0.6,-18.1 0.3,-7.4 0.8,-14 1.4,-22.6 0.6,-8.2 1,-10.1 1.5,-17.4 0.2,-3.5 0.5,-6.9 0.7,-10.4 0.3,-4 0.4,-5.6 0.6,-7.9 0.1,-1.2 0.3,-2.1 0.4,-3.7 0.2,-2.2 0.2,-3.2 0.3,-5.2 0.1,-1.3 0.2,-3.2 0.5,-5.6 39.3,33 81.799998,68 121.199998,101.1 z"
   inkscape:connector-curvature="0" />

	</g>

</g>
    </g>
  </g>
  <style
     id="style3713"
     type="text/css">
	.st0{fill:#93AEDB;}
</style>
</svg>
